PathFileType	4	(X/Y/Z)	D:\Research_projects\MuscleProsody\BulkSports2Dtrack\RetrackedSports2D\p1_sample60_cam1\p1_sample60_cam1_Sports2D\p1_sample60_cam1_Sports2D_px_person00.trc
DataRate	CameraRate	NumFrames	NumMarkers	Units	OrigDataRate	OrigDataStartFrame	OrigNumFrames
60	60	13	22	m	60	585	780
Frame#	Time	Hip			RHip			RKnee			RAnkle			RBigToe			RSmallToe			RHeel			LHip			LKnee			LAnkle			LBigToe			LSmallToe			LHeel			Neck			Head			Nose			RShoulder			RElbow			RWrist			LShoulder			LElbow			LWrist		
		X1	Y1	Z1	X2	Y2	Z2	X3	Y3	Z3	X4	Y4	Z4	X5	Y5	Z5	X6	Y6	Z6	X7	Y7	Z7	X8	Y8	Z8	X9	Y9	Z9	X10	Y10	Z10	X11	Y11	Z11	X12	Y12	Z12	X13	Y13	Z13	X14	Y14	Z14	X15	Y15	Z15	X16	Y16	Z16	X17	Y17	Z17	X18	Y18	Z18	X19	Y19	Z19	X20	Y20	Z20	X21	Y21	Z21	X22	Y22	Z22
585	9.75	317.1320576235286	536.4782147781775	0.0	289.0171747130562	534.8241998274408	0.0	285.35253544054666	673.3182514956515	0.0	274.0962713797872	808.5488904938493	0.0	311.56859040165455	850.9005730758483	0.0	289.3373657466396	855.6881909854277	0.0	262.88521250978556	821.1587681681671	0.0	344.13962343984963	536.1522402538048	0.0	334.1153253798717	667.5040370892259	0.0	312.51070472282635	784.8494710205122	0.0	347.204381768322	827.2029310236707	0.0	351.2597646185929	814.8452647126248	0.0	299.2123066750992	797.8580057908558	0.0	331.06234259453015	326.51616953618236	0.0	358.7533086391476	228.354887496204	0.0	363.3750672570807	290.2987187920932	0.0	271.1175248511506	359.00601986701315	0.0	282.2183647853992	457.89594681491604	0.0	388.23828317948795	441.14967817206116	0.0	368.88607288621694	368.3355338161011	0.0	384.898844984712	453.23785692741245	0.0	374.7932295365704	490.2125973382232	0.0
586	9.766666666666666	316.944141527077	536.5670396117237	0.0	288.82037855792385	534.9021944744017	0.0	285.1589922094666	673.3671262831514	0.0	273.99694108438274	808.5252445013839	0.0	311.65166361418227	850.852924552457	0.0	289.3074242858684	855.7029903546858	0.0	262.81589182440365	821.1329603120572	0.0	343.9873961068138	536.2643196475502	0.0	334.0435034974848	667.5396076747342	0.0	312.46106500348196	784.7661252133607	0.0	347.20128279995885	827.2833527644275	0.0	351.2416487287563	814.8409301635952	0.0	299.1995870275756	797.7414520849039	0.0	331.14126281128694	326.4746190974201	0.0	358.821645418061	228.32917083055509	0.0	363.32817696817403	290.309531015971	0.0	271.0476207071827	359.003078395218	0.0	281.2630524467739	458.1566646603198	0.0	385.52931213691545	441.1600687597085	0.0	369.03811024126463	368.3788093502483	0.0	385.10052655397755	453.24333832198334	0.0	377.79236459616453	490.36787660530433	0.0
587	9.783333333333333	316.76416706941376	536.790977509533	0.0	288.6578229297	535.12206906551	0.0	284.9566978216284	673.5263729830842	0.0	273.884802561116	808.4677777675438	0.0	311.76088696184064	850.7866672988935	0.0	289.25141842990155	855.7051899083746	0.0	262.7882362168501	821.0728628948312	0.0	343.8768214960062	536.5585609341891	0.0	333.9653826117094	667.7096840677649	0.0	312.38728020125944	784.698262509178	0.0	347.2477364411126	827.4235630457845	0.0	351.24235385007313	814.8540862975618	0.0	299.2106585993703	797.6470396179328	0.0	331.272421427273	326.39139402854306	0.0	358.9738987222611	228.29511843182613	0.0	363.3463192874386	290.3125953454852	0.0	270.93881077952483	358.9317285053297	0.0	279.5955170659471	458.4163024844253	0.0	380.796915227942	441.3767195542389	0.0	369.1913075138498	368.435306928919	0.0	385.15286897686167	453.31102953883027	0.0	382.62129132074875	490.3757119402187	0.0
588	9.8	316.59924691447804	537.1453980092575	0.0	288.54155391668814	535.4932597199171	0.0	284.7523042371706	673.8056294302173	0.0	273.77024055629613	808.3806122089754	0.0	311.8752687941972	850.7120226275398	0.0	289.16085797222877	855.6965413464965	0.0	262.81564538000697	820.9871429528408	0.0	343.80747492352117	537.0394385311685	0.0	333.88342654145174	668.027829339732	0.0	312.29075249733035	784.6564083705547	0.0	347.3455038619787	827.629451042297	0.0	351.2599991764185	814.891056374146	0.0	299.25479170089795	797.5840084458544	0.0	331.4503816493286	326.26556069171795	0.0	359.21284845221936	228.24998750096373	0.0	363.42793593494025	290.29748927035666	0.0	270.7963851291039	358.79697457196556	0.0	277.2901999230641	458.6474525494484	0.0	374.0502013911171	441.84482682511754	0.0	369.34427920374947	368.5090991208375	0.0	385.1173796451235	453.47343775890675	0.0	389.0551184077304	490.1974602411483	0.0
589	9.816666666666666	316.4587150491645	537.6173116113798	0.0	288.48422529481536	536.0185484926837	0.0	284.5530795475215	674.2190792066764	0.0	273.66110054618434	808.2703197721581	0.0	311.9761034291523	850.6391805198448	0.0	289.03460165225704	855.6777366979506	0.0	262.9095226044623	820.889084879124	0.0	343.7769544404787	537.70352230154	0.0	333.7958247913219	668.5079192026888	0.0	312.1735555715727	784.6547307886426	0.0	347.4925136961978	827.8998907669328	0.0	351.2932910282409	814.9533610818856	0.0	299.3390671619129	797.5642055028508	0.0	331.6713881236458	326.10187098391333	0.0	359.5405355776975	228.19269762773274	0.0	363.56967303480127	290.25406106329507	0.0	270.63202397473873	358.6087420495377	0.0	274.4536353892482	458.827517104982	0.0	365.32811717076476	442.59949415737543	0.0	369.4966347592824	368.6014807900354	0.0	385.06881545117204	453.7592382677831	0.0	396.7842464823977	489.79488413409103	0.0
590	9.833333333333334	316.35098555141246	538.1852537762336	0.0	288.4940712004993	536.6886299941406	0.0	284.36736996858883	674.7781631345648	0.0	273.5636666697871	808.1466124251871	0.0	312.05216024516136	850.5774415813262	0.0	288.8829911142252	855.6474315702328	0.0	263.08130425933433	820.7901798198335	0.0	343.7800973833319	538.5324328474875	0.0	333.69938201021733	669.1516943490351	0.0	312.03949097087207	784.7066253646851	0.0	347.68036847636273	828.2217039999612	0.0	351.33872649082724	815.0344664847327	0.0	299.46515531091427	797.6009977266177	0.0	331.9352811849395	325.91384776321246	0.0	359.9590386897097	228.12612020265252	0.0	363.7676688231525	290.1745005961173	0.0	270.4586421048467	358.3810226322129	0.0	271.2142922643787	458.93942306105333	0.0	354.72656482470614	443.6553573503198	0.0	369.6524290785084	368.71119572554124	0.0	385.06900852693377	454.15758357423465	0.0	405.4285756286486	489.1292163120809	0.0
591	9.85	316.2851702681558	538.8177467773501	0.0	288.5750084272332	537.4762362651144	0.0	284.2040077856016	675.4716461833817	0.0	273.48389659870907	808.0217839728251	0.0	312.0968505595825	850.5327617260238	0.0	288.72247773934896	855.6035580226653	0.0	263.33927176600105	820.6983108654822	0.0	343.81077642520563	539.4837411862911	0.0	333.5932526562839	669.9362518637472	0.0	311.89551535493445	784.8167435615644	0.0	347.89515911656395	828.5719971907615	0.0	351.38956218679766	815.125038778745	0.0	299.624501694375	797.7046343851284	0.0	332.24051063236817	325.7221709181777	0.0	360.46695004322464	228.05649382780163	0.0	364.0177888069493	290.0566728397055	0.0	270.2881422383408	358.1349075228278	0.0	267.71662296619877	458.96958872846653	0.0	342.4318589712814	444.9968143593122	0.0	369.81808713395253	368.8354853418527	0.0	385.1380919396312	454.5981575527431	0.0	414.5531201325382	488.15293507696197	0.0
592	9.866666666666667	316.2719961810222	539.4781457149345	0.0	288.72894298849167	538.3399241196117	0.0	284.07009892698875	676.2581193031286	0.0	273.4270532302435	807.9080013872668	0.0	312.10334300045815	850.504060467449	0.0	288.56584752463743	855.5442126198711	0.0	263.68336537295914	820.6185453173551	0.0	343.86686527513365	540.4964618104406	0.0	333.48077692219886	670.8149211655427	0.0	311.75170280751735	784.9775396939226	0.0	348.1210486294324	828.9241906549174	0.0	351.4384145751343	815.2179828131758	0.0	299.7976425144457	797.8766373569772	0.0	332.5775184112849	325.5495964920586	0.0	361.05508711380526	227.9914872252799	0.0	364.3151969961244	289.9069554333935	0.0	270.1329461770174	357.89862528678714	0.0	264.11903507549187	458.90286207281474	0.0	328.7520160810701	446.5749711620547	0.0	369.9971936599168	368.9697617380348	0.0	385.25090811899236	454.9759999307847	0.0	423.7009012289328	486.82625869724427	0.0
593	9.883333333333333	316.31862450248445	540.1324039887363	0.0	288.95457200965575	539.2364488607432	0.0	283.9670655468667	677.082434565769	0.0	273.3968573743311	807.8138162794891	0.0	312.0652801482075	850.484509482919	0.0	288.4150888906138	855.4671566618678	0.0	264.10517137776657	820.5535098436197	0.0	343.9522897412504	541.5086133704568	0.0	333.3697211260862	671.731463616221	0.0	311.61960197127695	785.173848950315	0.0	348.3442389181365	829.2538142348284	0.0	351.4802207928436	815.3083985738848	0.0	299.9621255233958	798.1082677600219	0.0	332.92807910818493	325.41510953553467	0.0	361.70778768341864	227.93867137817645	0.0	364.6531766083031	289.74031046864496	0.0	270.005536019223	357.7011935257171	0.0	260.58458584194034	458.71651030064146	0.0	314.12055316215725	448.31628114803914	0.0	370.18799151658845	369.10637364785373	0.0	385.3595074886469	455.20648932950763	0.0	432.45714310961756	485.1554807145721	0.0
594	9.9	316.4245642424496	540.7546619266686	0.0	289.2445069712302	540.1323797427889	0.0	283.88978161869574	677.8980641661874	0.0	273.3945175683283	807.7416641759858	0.0	311.98057199007405	850.4660648627611	0.0	288.2632164763213	855.3690671860712	0.0	264.5900791810329	820.5039599051934	0.0	344.0726556242547	542.472276877929	0.0	333.2694502005319	672.637409511333	0.0	311.5094073555	785.3910911939562	0.0	348.55586367202653	829.5422245282057	0.0	351.51449747109604	815.3923815968594	0.0	300.10257808519475	798.3847422258044	0.0	333.2700999259068	325.3303008295962	0.0	362.4071706965043	227.90439138968298	0.0	365.0222642545887	289.5775912843621	0.0	269.914363315045	357.5650023004276	0.0	257.2633178385745	458.3799287185509	0.0	299.06834178506256	450.1403175471615	0.0	370.38296357118867	369.23584049898733	0.0	385.41552266763847	455.26109961894645	0.0	440.50608149289206	483.2137338942152	0.0
595	9.916666666666666	316.5844863030882	541.3312864309486	0.0	289.58661457805357	541.0073473294879	0.0	283.8320682418712	678.6736247249	0.0	273.41793685429053	807.6867567002654	0.0	311.85267177482973	850.4412003789499	0.0	288.1042270341303	855.2461800077435	0.0	265.11693172147784	820.468853750876	0.0	344.22929240055254	543.3597391606544	0.0	333.1846329875427	673.499342414169	0.0	311.42571326437735	785.6203944152505	0.0	348.75431036377194	829.7751016254612	0.0	351.54781357800096	815.4664166547188	0.0	300.2141509352585	798.689860229257	0.0	333.58290634166923	325.2982288706295	0.0	363.13343256677604	227.89287998378677	0.0	365.4104492788864	289.4426494897297	0.0	269.860829066356	357.5016960497255	0.0	254.27793083528698	457.86243611970093	0.0	284.1905701435368	451.9774500841749	0.0	370.570431545555	369.3514503493226	0.0	385.3774372013953	455.1612853752339	0.0	447.6290730486829	481.13148619378114	0.0
596	9.933333333333334	316.7929404683475	541.8599056279592	0.0	289.968679949658	541.8479398418478	0.0	283.79344572283117	679.3851986639198	0.0	273.46290626322326	807.6382750407736	0.0	311.69072674393004	850.4041221421701	0.0	287.9405769988883	855.097071874092	0.0	265.65930387848	820.4446185774292	0.0	344.41798061831145	544.1607480413041	0.0	333.1122144363872	674.2943832028608	0.0	311.36551588100895	785.8586223351869	0.0	348.9446179969081	829.9399279917009	0.0	351.5925080139672	815.5269423421522	0.0	300.29968629612887	799.0094347454128	0.0	333.850352959453	325.31351098910415	0.0	363.863389973303	227.90719986684522	0.0	365.8025780597848	289.35846272871487	0.0	269.8405735517439	357.5117489871779	0.0	251.71832017898595	457.14659546750113	0.0	270.10718290836616	453.7783994467285	0.0	370.73887366132425	369.4534201542576	0.0	385.2107299650062	454.95367623840224	0.0	453.6709121987967	479.07495083567363	0.0
597	9.95	317.04463144048754	542.3411133785979	0.0	290.37863568962985	542.6372273461053	0.0	283.7799888677743	680.0103124636206	0.0	273.5245060658231	807.583140064029	0.0	311.51099197066986	850.3544714528392	0.0	287.78272915094107	854.9258205679123	0.0	266.1890255840994	820.425785116633	0.0	344.63153700307646	544.8719623100172	0.0	333.0461692990887	675.0031459008974	0.0	311.3216200574381	786.1046679855435	0.0	349.1326313566905	830.0290389931697	0.0	351.6593186032264	815.5697322199895	0.0	300.36439010865183	799.3336827687614	0.0	334.06165642134215	325.36459641816907	0.0	364.57195121580537	227.95132764113018	0.0	366.17956856828016	289.34135364614247	0.0	269.8463622590938	357.58780518085644	0.0	249.6399966431397	456.2468356161898	0.0	257.39000561981516	455.5147876963676	0.0	370.87906583041524	369.54831884343463	0.0	384.8919987785413	454.6933676810656	0.0	458.5346682851529	477.22433294340584	0.0
